<mxfile host="app.diagrams.net" modified="2021-08-16T15:23:06.841Z" agent="5.0 (Macintosh; Intel Mac OS X 10_15_7) AppleWebKit/605.1.15 (KHTML, like Gecko) Version/14.0.1 Safari/605.1.15" etag="YObDy95576b__wAXJZol" version="14.9.6" type="github">
  <diagram id="CaQWxILleDfgxqNdvDG2" name="Page-1">
    <mxGraphModel dx="983" dy="518" grid="1" gridSize="10" guides="1" tooltips="1" connect="1" arrows="1" fold="1" page="1" pageScale="1" pageWidth="827" pageHeight="1169" math="0" shadow="0">
      <root>
        <mxCell id="0" />
        <mxCell id="1" parent="0" />
        <mxCell id="dxLcZgTcTKUuJuJHGNTP-13" style="edgeStyle=orthogonalEdgeStyle;rounded=0;orthogonalLoop=1;jettySize=auto;html=1;exitX=0.25;exitY=1;exitDx=0;exitDy=0;entryX=0.25;entryY=0;entryDx=0;entryDy=0;strokeColor=#FF3333;" parent="1" source="dxLcZgTcTKUuJuJHGNTP-1" target="dxLcZgTcTKUuJuJHGNTP-2" edge="1">
          <mxGeometry relative="1" as="geometry" />
        </mxCell>
        <mxCell id="P7W2zEGq8QfP0Ay7pxIV-13" value="A&lt;sub&gt;pp&lt;/sub&gt;,&lt;br&gt;A&lt;sub&gt;ph&lt;/sub&gt;" style="edgeLabel;html=1;align=center;verticalAlign=middle;resizable=0;points=[];" vertex="1" connectable="0" parent="dxLcZgTcTKUuJuJHGNTP-13">
          <mxGeometry x="-0.1417" relative="1" as="geometry">
            <mxPoint as="offset" />
          </mxGeometry>
        </mxCell>
        <mxCell id="dxLcZgTcTKUuJuJHGNTP-27" style="edgeStyle=orthogonalEdgeStyle;rounded=0;orthogonalLoop=1;jettySize=auto;html=1;exitX=0.5;exitY=0;exitDx=0;exitDy=0;entryX=0.5;entryY=1;entryDx=0;entryDy=0;endArrow=classic;endFill=1;" parent="1" source="dxLcZgTcTKUuJuJHGNTP-1" target="dxLcZgTcTKUuJuJHGNTP-23" edge="1">
          <mxGeometry relative="1" as="geometry" />
        </mxCell>
        <mxCell id="P7W2zEGq8QfP0Ay7pxIV-12" value="&lt;span style=&quot;color: rgb(32 , 33 , 34) ; font-family: sans-serif ; font-size: 12.319999694824219px ; text-align: left ; background-color: rgb(248 , 249 , 250)&quot;&gt;γ&lt;sub&gt;p&lt;/sub&gt;&lt;/span&gt;" style="edgeLabel;html=1;align=center;verticalAlign=middle;resizable=0;points=[];" vertex="1" connectable="0" parent="dxLcZgTcTKUuJuJHGNTP-27">
          <mxGeometry x="-0.032" y="-1" relative="1" as="geometry">
            <mxPoint as="offset" />
          </mxGeometry>
        </mxCell>
        <mxCell id="dxLcZgTcTKUuJuJHGNTP-1" value="&lt;b&gt;p&lt;/b&gt;" style="rounded=1;whiteSpace=wrap;html=1;" parent="1" vertex="1">
          <mxGeometry x="220" y="260" width="60" height="30" as="geometry" />
        </mxCell>
        <mxCell id="dxLcZgTcTKUuJuJHGNTP-14" style="edgeStyle=orthogonalEdgeStyle;rounded=0;orthogonalLoop=1;jettySize=auto;html=1;exitX=0.5;exitY=0;exitDx=0;exitDy=0;endArrow=oval;endFill=1;strokeColor=#FF3333;" parent="1" source="dxLcZgTcTKUuJuJHGNTP-2" edge="1">
          <mxGeometry relative="1" as="geometry">
            <mxPoint x="250" y="364" as="sourcePoint" />
            <mxPoint x="250" y="294" as="targetPoint" />
          </mxGeometry>
        </mxCell>
        <mxCell id="dxLcZgTcTKUuJuJHGNTP-28" style="edgeStyle=orthogonalEdgeStyle;rounded=0;orthogonalLoop=1;jettySize=auto;html=1;exitX=0.5;exitY=1;exitDx=0;exitDy=0;endArrow=classic;endFill=1;entryX=0.5;entryY=0;entryDx=0;entryDy=0;" parent="1" source="dxLcZgTcTKUuJuJHGNTP-2" target="dxLcZgTcTKUuJuJHGNTP-25" edge="1">
          <mxGeometry relative="1" as="geometry">
            <mxPoint x="250" y="440" as="targetPoint" />
          </mxGeometry>
        </mxCell>
        <mxCell id="P7W2zEGq8QfP0Ay7pxIV-22" value="&lt;span style=&quot;color: rgb(32 , 33 , 34) ; font-family: sans-serif ; font-size: 12.319999694824219px ; text-align: left ; background-color: rgb(248 , 249 , 250)&quot;&gt;γ&lt;/span&gt;&lt;sub style=&quot;color: rgb(32 , 33 , 34) ; font-family: sans-serif ; text-align: left ; background-color: rgb(248 , 249 , 250)&quot;&gt;a&lt;/sub&gt;" style="edgeLabel;html=1;align=center;verticalAlign=middle;resizable=0;points=[];" vertex="1" connectable="0" parent="dxLcZgTcTKUuJuJHGNTP-28">
          <mxGeometry x="-0.2148" y="1" relative="1" as="geometry">
            <mxPoint as="offset" />
          </mxGeometry>
        </mxCell>
        <mxCell id="dxLcZgTcTKUuJuJHGNTP-2" value="&lt;b&gt;a&lt;/b&gt;" style="rounded=1;whiteSpace=wrap;html=1;" parent="1" vertex="1">
          <mxGeometry x="220" y="370" width="60" height="30" as="geometry" />
        </mxCell>
        <mxCell id="dxLcZgTcTKUuJuJHGNTP-10" style="edgeStyle=orthogonalEdgeStyle;rounded=0;orthogonalLoop=1;jettySize=auto;html=1;entryX=1;entryY=0.25;entryDx=0;entryDy=0;strokeColor=#0000CC;" parent="1" source="dxLcZgTcTKUuJuJHGNTP-3" target="dxLcZgTcTKUuJuJHGNTP-1" edge="1">
          <mxGeometry relative="1" as="geometry">
            <Array as="points">
              <mxPoint x="490" y="315" />
              <mxPoint x="490" y="268" />
            </Array>
          </mxGeometry>
        </mxCell>
        <mxCell id="P7W2zEGq8QfP0Ay7pxIV-20" value="P&lt;sub&gt;fp&lt;/sub&gt;" style="edgeLabel;html=1;align=center;verticalAlign=middle;resizable=0;points=[];" vertex="1" connectable="0" parent="dxLcZgTcTKUuJuJHGNTP-10">
          <mxGeometry x="-0.1247" relative="1" as="geometry">
            <mxPoint as="offset" />
          </mxGeometry>
        </mxCell>
        <mxCell id="dxLcZgTcTKUuJuJHGNTP-16" style="edgeStyle=orthogonalEdgeStyle;rounded=0;orthogonalLoop=1;jettySize=auto;html=1;exitX=0.5;exitY=1;exitDx=0;exitDy=0;entryX=1;entryY=0.5;entryDx=0;entryDy=0;endArrow=classic;endFill=1;strokeColor=#FF3333;" parent="1" source="dxLcZgTcTKUuJuJHGNTP-3" target="dxLcZgTcTKUuJuJHGNTP-2" edge="1">
          <mxGeometry relative="1" as="geometry" />
        </mxCell>
        <mxCell id="P7W2zEGq8QfP0Ay7pxIV-16" value="A&lt;sub&gt;fp&lt;/sub&gt;&lt;span style=&quot;font-size: 9.166666030883789px&quot;&gt;,&amp;nbsp;&lt;/span&gt;A&lt;sub&gt;fh&lt;/sub&gt;" style="edgeLabel;html=1;align=center;verticalAlign=middle;resizable=0;points=[];" vertex="1" connectable="0" parent="dxLcZgTcTKUuJuJHGNTP-16">
          <mxGeometry x="0.0306" y="-1" relative="1" as="geometry">
            <mxPoint as="offset" />
          </mxGeometry>
        </mxCell>
        <mxCell id="dxLcZgTcTKUuJuJHGNTP-21" style="edgeStyle=orthogonalEdgeStyle;rounded=0;orthogonalLoop=1;jettySize=auto;html=1;exitX=0.5;exitY=0;exitDx=0;exitDy=0;endArrow=classic;endFill=1;entryX=0.5;entryY=1;entryDx=0;entryDy=0;" parent="1" source="dxLcZgTcTKUuJuJHGNTP-3" target="dxLcZgTcTKUuJuJHGNTP-18" edge="1">
          <mxGeometry relative="1" as="geometry">
            <mxPoint x="600" y="273" as="targetPoint" />
          </mxGeometry>
        </mxCell>
        <mxCell id="dxLcZgTcTKUuJuJHGNTP-3" value="&lt;b&gt;f&lt;/b&gt;" style="rounded=1;whiteSpace=wrap;html=1;" parent="1" vertex="1">
          <mxGeometry x="540" y="303" width="60" height="30" as="geometry" />
        </mxCell>
        <mxCell id="P7W2zEGq8QfP0Ay7pxIV-3" style="edgeStyle=orthogonalEdgeStyle;rounded=0;orthogonalLoop=1;jettySize=auto;html=1;exitX=0.5;exitY=1;exitDx=0;exitDy=0;entryX=0.5;entryY=0;entryDx=0;entryDy=0;endArrow=classic;endFill=1;" edge="1" parent="1" source="dxLcZgTcTKUuJuJHGNTP-4" target="P7W2zEGq8QfP0Ay7pxIV-1">
          <mxGeometry relative="1" as="geometry" />
        </mxCell>
        <mxCell id="P7W2zEGq8QfP0Ay7pxIV-21" value="&lt;span style=&quot;color: rgb(32 , 33 , 34) ; font-family: sans-serif ; font-size: 12.319999694824219px ; text-align: left ; background-color: rgb(248 , 249 , 250)&quot;&gt;γ&lt;/span&gt;&lt;sub style=&quot;color: rgb(32 , 33 , 34) ; font-family: sans-serif ; text-align: left ; background-color: rgb(248 , 249 , 250)&quot;&gt;m&lt;/sub&gt;" style="edgeLabel;html=1;align=center;verticalAlign=middle;resizable=0;points=[];" vertex="1" connectable="0" parent="P7W2zEGq8QfP0Ay7pxIV-3">
          <mxGeometry x="-0.3003" relative="1" as="geometry">
            <mxPoint as="offset" />
          </mxGeometry>
        </mxCell>
        <mxCell id="dxLcZgTcTKUuJuJHGNTP-4" value="&lt;b&gt;m&lt;/b&gt;" style="rounded=1;whiteSpace=wrap;html=1;" parent="1" vertex="1">
          <mxGeometry x="382" y="310" width="60" height="30" as="geometry" />
        </mxCell>
        <mxCell id="dxLcZgTcTKUuJuJHGNTP-18" value="" style="ellipse;whiteSpace=wrap;html=1;aspect=fixed;" parent="1" vertex="1">
          <mxGeometry x="565" y="258" width="10" height="10" as="geometry" />
        </mxCell>
        <mxCell id="dxLcZgTcTKUuJuJHGNTP-19" value="" style="endArrow=none;html=1;" parent="1" edge="1">
          <mxGeometry width="50" height="50" relative="1" as="geometry">
            <mxPoint x="562" y="273" as="sourcePoint" />
            <mxPoint x="578" y="253" as="targetPoint" />
          </mxGeometry>
        </mxCell>
        <mxCell id="dxLcZgTcTKUuJuJHGNTP-22" value="&lt;div class=&quot;page&quot; title=&quot;Page 1&quot;&gt;&lt;div class=&quot;section&quot; style=&quot;background-color: rgb(255 , 255 , 255)&quot;&gt;&lt;div class=&quot;layoutArea&quot;&gt;&lt;div class=&quot;column&quot;&gt;&lt;p&gt;&lt;span style=&quot;font-family: &amp;#34;calibri&amp;#34;&quot;&gt;&lt;font style=&quot;font-size: 10px&quot;&gt;reproduced from Baker et al 2017&lt;/font&gt;&lt;/span&gt;&lt;/p&gt;&lt;/div&gt;&lt;/div&gt;&lt;/div&gt;&lt;/div&gt;" style="text;html=1;align=center;verticalAlign=middle;resizable=0;points=[];autosize=1;strokeColor=none;" parent="1" vertex="1">
          <mxGeometry x="245" y="537" width="150" height="40" as="geometry" />
        </mxCell>
        <mxCell id="dxLcZgTcTKUuJuJHGNTP-23" value="" style="ellipse;whiteSpace=wrap;html=1;aspect=fixed;" parent="1" vertex="1">
          <mxGeometry x="245" y="195" width="10" height="10" as="geometry" />
        </mxCell>
        <mxCell id="dxLcZgTcTKUuJuJHGNTP-24" value="" style="endArrow=none;html=1;" parent="1" edge="1">
          <mxGeometry width="50" height="50" relative="1" as="geometry">
            <mxPoint x="242" y="210.0000000000001" as="sourcePoint" />
            <mxPoint x="258" y="190.0000000000001" as="targetPoint" />
          </mxGeometry>
        </mxCell>
        <mxCell id="dxLcZgTcTKUuJuJHGNTP-25" value="" style="ellipse;whiteSpace=wrap;html=1;aspect=fixed;" parent="1" vertex="1">
          <mxGeometry x="245" y="445" width="10" height="10" as="geometry" />
        </mxCell>
        <mxCell id="dxLcZgTcTKUuJuJHGNTP-26" value="" style="endArrow=none;html=1;" parent="1" edge="1">
          <mxGeometry width="50" height="50" relative="1" as="geometry">
            <mxPoint x="242" y="460.00000000000017" as="sourcePoint" />
            <mxPoint x="258" y="440.00000000000017" as="targetPoint" />
          </mxGeometry>
        </mxCell>
        <mxCell id="P7W2zEGq8QfP0Ay7pxIV-1" value="" style="ellipse;whiteSpace=wrap;html=1;aspect=fixed;" vertex="1" parent="1">
          <mxGeometry x="407" y="415" width="10" height="10" as="geometry" />
        </mxCell>
        <mxCell id="P7W2zEGq8QfP0Ay7pxIV-2" value="" style="endArrow=none;html=1;" edge="1" parent="1">
          <mxGeometry width="50" height="50" relative="1" as="geometry">
            <mxPoint x="404" y="430.0000000000002" as="sourcePoint" />
            <mxPoint x="420" y="410.0000000000002" as="targetPoint" />
          </mxGeometry>
        </mxCell>
        <mxCell id="P7W2zEGq8QfP0Ay7pxIV-5" style="edgeStyle=orthogonalEdgeStyle;rounded=0;orthogonalLoop=1;jettySize=auto;html=1;entryX=1.053;entryY=0.54;entryDx=0;entryDy=0;entryPerimeter=0;endArrow=classic;endFill=1;" edge="1" parent="1" source="P7W2zEGq8QfP0Ay7pxIV-4" target="dxLcZgTcTKUuJuJHGNTP-3">
          <mxGeometry relative="1" as="geometry" />
        </mxCell>
        <mxCell id="P7W2zEGq8QfP0Ay7pxIV-15" value="F&lt;sub&gt;dam&lt;/sub&gt;" style="edgeLabel;html=1;align=center;verticalAlign=middle;resizable=0;points=[];" vertex="1" connectable="0" parent="P7W2zEGq8QfP0Ay7pxIV-5">
          <mxGeometry x="0.0446" y="-1" relative="1" as="geometry">
            <mxPoint x="-1" as="offset" />
          </mxGeometry>
        </mxCell>
        <mxCell id="P7W2zEGq8QfP0Ay7pxIV-4" value="Mechanical &lt;br&gt;damage&lt;br&gt;to ECM" style="text;html=1;align=center;verticalAlign=middle;resizable=0;points=[];autosize=1;strokeColor=none;" vertex="1" parent="1">
          <mxGeometry x="670" y="294" width="80" height="50" as="geometry" />
        </mxCell>
        <mxCell id="P7W2zEGq8QfP0Ay7pxIV-7" style="edgeStyle=orthogonalEdgeStyle;rounded=0;orthogonalLoop=1;jettySize=auto;html=1;entryX=0;entryY=0.5;entryDx=0;entryDy=0;endArrow=classic;endFill=1;" edge="1" parent="1" source="P7W2zEGq8QfP0Ay7pxIV-6" target="dxLcZgTcTKUuJuJHGNTP-1">
          <mxGeometry relative="1" as="geometry">
            <Array as="points">
              <mxPoint x="190" y="275" />
              <mxPoint x="190" y="275" />
            </Array>
          </mxGeometry>
        </mxCell>
        <mxCell id="P7W2zEGq8QfP0Ay7pxIV-11" value="P&lt;sub&gt;bp&lt;/sub&gt;" style="edgeLabel;html=1;align=center;verticalAlign=middle;resizable=0;points=[];" vertex="1" connectable="0" parent="P7W2zEGq8QfP0Ay7pxIV-7">
          <mxGeometry x="-0.2362" y="-1" relative="1" as="geometry">
            <mxPoint as="offset" />
          </mxGeometry>
        </mxCell>
        <mxCell id="P7W2zEGq8QfP0Ay7pxIV-6" value="Background&lt;br&gt;Production" style="text;html=1;align=center;verticalAlign=middle;resizable=0;points=[];autosize=1;strokeColor=none;" vertex="1" parent="1">
          <mxGeometry x="90" y="260" width="80" height="30" as="geometry" />
        </mxCell>
        <mxCell id="P7W2zEGq8QfP0Ay7pxIV-9" style="edgeStyle=orthogonalEdgeStyle;rounded=0;orthogonalLoop=1;jettySize=auto;html=1;entryX=0.5;entryY=0;entryDx=0;entryDy=0;endArrow=classic;endFill=1;" edge="1" parent="1" source="P7W2zEGq8QfP0Ay7pxIV-8" target="dxLcZgTcTKUuJuJHGNTP-4">
          <mxGeometry relative="1" as="geometry" />
        </mxCell>
        <mxCell id="P7W2zEGq8QfP0Ay7pxIV-17" value="M&lt;sub&gt;bp&lt;/sub&gt;" style="edgeLabel;html=1;align=center;verticalAlign=middle;resizable=0;points=[];" vertex="1" connectable="0" parent="P7W2zEGq8QfP0Ay7pxIV-9">
          <mxGeometry x="-0.0143" y="1" relative="1" as="geometry">
            <mxPoint x="1" y="8" as="offset" />
          </mxGeometry>
        </mxCell>
        <mxCell id="P7W2zEGq8QfP0Ay7pxIV-8" value="Background&lt;br&gt;Production" style="text;html=1;align=center;verticalAlign=middle;resizable=0;points=[];autosize=1;strokeColor=none;" vertex="1" parent="1">
          <mxGeometry x="372" y="205" width="80" height="30" as="geometry" />
        </mxCell>
        <mxCell id="P7W2zEGq8QfP0Ay7pxIV-10" style="edgeStyle=orthogonalEdgeStyle;rounded=0;orthogonalLoop=1;jettySize=auto;html=1;exitX=0.75;exitY=1;exitDx=0;exitDy=0;entryX=1;entryY=0.75;entryDx=0;entryDy=0;endArrow=classic;endFill=1;strokeColor=#0000CC;" edge="1" parent="1" source="dxLcZgTcTKUuJuJHGNTP-1" target="dxLcZgTcTKUuJuJHGNTP-1">
          <mxGeometry relative="1" as="geometry">
            <Array as="points">
              <mxPoint x="265" y="310" />
              <mxPoint x="300" y="310" />
              <mxPoint x="300" y="283" />
            </Array>
          </mxGeometry>
        </mxCell>
        <mxCell id="P7W2zEGq8QfP0Ay7pxIV-14" value="P&lt;sub&gt;pp&lt;/sub&gt;" style="edgeLabel;html=1;align=center;verticalAlign=middle;resizable=0;points=[];" vertex="1" connectable="0" parent="P7W2zEGq8QfP0Ay7pxIV-10">
          <mxGeometry x="-0.0929" y="-1" relative="1" as="geometry">
            <mxPoint x="-12" y="-1" as="offset" />
          </mxGeometry>
        </mxCell>
        <mxCell id="P7W2zEGq8QfP0Ay7pxIV-23" value="&lt;div class=&quot;page&quot; title=&quot;Page 1&quot;&gt;&lt;div class=&quot;section&quot; style=&quot;background-color: rgb(255 , 255 , 255)&quot;&gt;&lt;div class=&quot;layoutArea&quot;&gt;&lt;div class=&quot;column&quot;&gt;&lt;p&gt;&lt;span style=&quot;font-family: &amp;#34;calibri&amp;#34;&quot;&gt;&lt;font style=&quot;font-size: 10px&quot;&gt;activation&lt;/font&gt;&lt;/span&gt;&lt;/p&gt;&lt;/div&gt;&lt;/div&gt;&lt;/div&gt;&lt;/div&gt;" style="text;html=1;align=center;verticalAlign=middle;resizable=0;points=[];autosize=1;strokeColor=none;" vertex="1" parent="1">
          <mxGeometry x="575" y="440" width="50" height="40" as="geometry" />
        </mxCell>
        <mxCell id="P7W2zEGq8QfP0Ay7pxIV-24" value="&lt;div class=&quot;page&quot; title=&quot;Page 1&quot;&gt;&lt;div class=&quot;section&quot; style=&quot;background-color: rgb(255 , 255 , 255)&quot;&gt;&lt;div class=&quot;layoutArea&quot;&gt;&lt;div class=&quot;column&quot;&gt;&lt;p&gt;&lt;span style=&quot;font-family: &amp;#34;calibri&amp;#34;&quot;&gt;&lt;font style=&quot;font-size: 10px&quot;&gt;inhibition&lt;/font&gt;&lt;/span&gt;&lt;/p&gt;&lt;/div&gt;&lt;/div&gt;&lt;/div&gt;&lt;/div&gt;" style="text;html=1;align=center;verticalAlign=middle;resizable=0;points=[];autosize=1;strokeColor=none;" vertex="1" parent="1">
          <mxGeometry x="575" y="465" width="50" height="40" as="geometry" />
        </mxCell>
        <mxCell id="P7W2zEGq8QfP0Ay7pxIV-25" value="&lt;div class=&quot;page&quot; title=&quot;Page 1&quot;&gt;&lt;div class=&quot;section&quot; style=&quot;background-color: rgb(255 , 255 , 255)&quot;&gt;&lt;div class=&quot;layoutArea&quot;&gt;&lt;div class=&quot;column&quot;&gt;&lt;p&gt;&lt;span style=&quot;font-family: &amp;#34;calibri&amp;#34;&quot;&gt;&lt;font style=&quot;font-size: 10px&quot;&gt;degradation&lt;/font&gt;&lt;/span&gt;&lt;/p&gt;&lt;/div&gt;&lt;/div&gt;&lt;/div&gt;&lt;/div&gt;" style="text;html=1;align=center;verticalAlign=middle;resizable=0;points=[];autosize=1;strokeColor=none;" vertex="1" parent="1">
          <mxGeometry x="575" y="495" width="60" height="40" as="geometry" />
        </mxCell>
        <mxCell id="P7W2zEGq8QfP0Ay7pxIV-26" value="&lt;div class=&quot;page&quot; title=&quot;Page 1&quot;&gt;&lt;div class=&quot;section&quot; style=&quot;background-color: rgb(255 , 255 , 255)&quot;&gt;&lt;div class=&quot;layoutArea&quot;&gt;&lt;div class=&quot;column&quot;&gt;&lt;p&gt;&lt;span style=&quot;font-family: &amp;#34;calibri&amp;#34;&quot;&gt;&lt;font style=&quot;font-size: 10px&quot;&gt;Positive feedback&lt;/font&gt;&lt;/span&gt;&lt;/p&gt;&lt;/div&gt;&lt;/div&gt;&lt;/div&gt;&lt;/div&gt;" style="text;html=1;align=center;verticalAlign=middle;resizable=0;points=[];autosize=1;strokeColor=none;" vertex="1" parent="1">
          <mxGeometry x="289" y="470" width="90" height="40" as="geometry" />
        </mxCell>
        <mxCell id="P7W2zEGq8QfP0Ay7pxIV-27" value="&lt;div class=&quot;page&quot; title=&quot;Page 1&quot;&gt;&lt;div class=&quot;section&quot; style=&quot;background-color: rgb(255 , 255 , 255)&quot;&gt;&lt;div class=&quot;layoutArea&quot;&gt;&lt;div class=&quot;column&quot;&gt;&lt;p&gt;&lt;span style=&quot;font-family: &amp;#34;calibri&amp;#34;&quot;&gt;&lt;font style=&quot;font-size: 10px&quot;&gt;Negative feedback&lt;/font&gt;&lt;/span&gt;&lt;/p&gt;&lt;/div&gt;&lt;/div&gt;&lt;/div&gt;&lt;/div&gt;" style="text;html=1;align=center;verticalAlign=middle;resizable=0;points=[];autosize=1;strokeColor=none;" vertex="1" parent="1">
          <mxGeometry x="292" y="495" width="90" height="40" as="geometry" />
        </mxCell>
        <mxCell id="P7W2zEGq8QfP0Ay7pxIV-28" value="" style="ellipse;whiteSpace=wrap;html=1;aspect=fixed;" vertex="1" parent="1">
          <mxGeometry x="562" y="513" width="10" height="10" as="geometry" />
        </mxCell>
        <mxCell id="P7W2zEGq8QfP0Ay7pxIV-29" value="" style="endArrow=none;html=1;" edge="1" parent="1">
          <mxGeometry width="50" height="50" relative="1" as="geometry">
            <mxPoint x="559" y="528.0000000000002" as="sourcePoint" />
            <mxPoint x="575" y="508.0000000000002" as="targetPoint" />
          </mxGeometry>
        </mxCell>
        <mxCell id="P7W2zEGq8QfP0Ay7pxIV-30" style="edgeStyle=orthogonalEdgeStyle;rounded=0;orthogonalLoop=1;jettySize=auto;html=1;entryX=0;entryY=0.5;entryDx=0;entryDy=0;endArrow=classic;endFill=1;" edge="1" parent="1" target="P7W2zEGq8QfP0Ay7pxIV-28">
          <mxGeometry relative="1" as="geometry">
            <mxPoint x="530" y="518" as="sourcePoint" />
            <mxPoint x="470" y="598" as="targetPoint" />
          </mxGeometry>
        </mxCell>
        <mxCell id="P7W2zEGq8QfP0Ay7pxIV-32" style="edgeStyle=orthogonalEdgeStyle;rounded=0;orthogonalLoop=1;jettySize=auto;html=1;endArrow=oval;endFill=1;" edge="1" parent="1">
          <mxGeometry relative="1" as="geometry">
            <mxPoint x="530" y="487" as="sourcePoint" />
            <mxPoint x="570" y="487" as="targetPoint" />
          </mxGeometry>
        </mxCell>
        <mxCell id="P7W2zEGq8QfP0Ay7pxIV-33" style="edgeStyle=orthogonalEdgeStyle;rounded=0;orthogonalLoop=1;jettySize=auto;html=1;endArrow=classic;endFill=1;" edge="1" parent="1">
          <mxGeometry relative="1" as="geometry">
            <mxPoint x="530" y="463" as="sourcePoint" />
            <mxPoint x="575" y="463" as="targetPoint" />
            <Array as="points">
              <mxPoint x="540" y="463" />
              <mxPoint x="540" y="463" />
            </Array>
          </mxGeometry>
        </mxCell>
        <mxCell id="P7W2zEGq8QfP0Ay7pxIV-36" style="edgeStyle=orthogonalEdgeStyle;rounded=0;orthogonalLoop=1;jettySize=auto;html=1;endArrow=none;endFill=0;strokeColor=#0000CC;" edge="1" parent="1">
          <mxGeometry relative="1" as="geometry">
            <mxPoint x="247" y="491.76" as="sourcePoint" />
            <mxPoint x="292" y="491.76" as="targetPoint" />
            <Array as="points">
              <mxPoint x="257" y="491.76" />
              <mxPoint x="257" y="491.76" />
            </Array>
          </mxGeometry>
        </mxCell>
        <mxCell id="P7W2zEGq8QfP0Ay7pxIV-37" style="edgeStyle=orthogonalEdgeStyle;rounded=0;orthogonalLoop=1;jettySize=auto;html=1;endArrow=none;endFill=0;strokeColor=#FF3333;" edge="1" parent="1">
          <mxGeometry relative="1" as="geometry">
            <mxPoint x="247" y="516.76" as="sourcePoint" />
            <mxPoint x="292" y="516.76" as="targetPoint" />
            <Array as="points">
              <mxPoint x="257" y="516.76" />
              <mxPoint x="257" y="516.76" />
            </Array>
          </mxGeometry>
        </mxCell>
        <mxCell id="P7W2zEGq8QfP0Ay7pxIV-40" style="rounded=0;orthogonalLoop=1;jettySize=auto;html=1;strokeColor=#FF3333;edgeStyle=orthogonalEdgeStyle;endArrow=classic;endFill=1;" edge="1" parent="1">
          <mxGeometry relative="1" as="geometry">
            <mxPoint x="442" y="325" as="sourcePoint" />
            <mxPoint x="540" y="325" as="targetPoint" />
            <Array as="points">
              <mxPoint x="442" y="325" />
              <mxPoint x="540" y="325" />
            </Array>
          </mxGeometry>
        </mxCell>
        <mxCell id="P7W2zEGq8QfP0Ay7pxIV-43" style="rounded=0;orthogonalLoop=1;jettySize=auto;html=1;edgeStyle=orthogonalEdgeStyle;endArrow=openAsync;endFill=0;strokeColor=#0000CC;exitX=1;exitY=0.5;exitDx=0;exitDy=0;dashed=1;" edge="1" parent="1" source="dxLcZgTcTKUuJuJHGNTP-4">
          <mxGeometry relative="1" as="geometry">
            <mxPoint x="442" y="324.94" as="sourcePoint" />
            <mxPoint x="540" y="325" as="targetPoint" />
            <Array as="points">
              <mxPoint x="540" y="325" />
            </Array>
          </mxGeometry>
        </mxCell>
        <mxCell id="P7W2zEGq8QfP0Ay7pxIV-44" style="rounded=0;orthogonalLoop=1;jettySize=auto;html=1;strokeColor=#FF3333;edgeStyle=orthogonalEdgeStyle;endArrow=classic;endFill=1;entryX=0;entryY=0.5;entryDx=0;entryDy=0;" edge="1" parent="1" target="dxLcZgTcTKUuJuJHGNTP-4">
          <mxGeometry relative="1" as="geometry">
            <mxPoint x="280" y="275" as="sourcePoint" />
            <mxPoint x="398" y="274.8" as="targetPoint" />
            <Array as="points">
              <mxPoint x="330" y="275" />
              <mxPoint x="330" y="325" />
            </Array>
          </mxGeometry>
        </mxCell>
        <mxCell id="P7W2zEGq8QfP0Ay7pxIV-45" style="rounded=0;orthogonalLoop=1;jettySize=auto;html=1;edgeStyle=orthogonalEdgeStyle;endArrow=openAsync;endFill=0;strokeColor=#0000CC;exitX=1;exitY=0.5;exitDx=0;exitDy=0;dashed=1;entryX=0;entryY=0.5;entryDx=0;entryDy=0;" edge="1" parent="1" source="dxLcZgTcTKUuJuJHGNTP-1" target="dxLcZgTcTKUuJuJHGNTP-4">
          <mxGeometry relative="1" as="geometry">
            <mxPoint x="300" y="274.8" as="sourcePoint" />
            <mxPoint x="398" y="300" as="targetPoint" />
            <Array as="points">
              <mxPoint x="330" y="275" />
              <mxPoint x="330" y="325" />
            </Array>
          </mxGeometry>
        </mxCell>
        <mxCell id="P7W2zEGq8QfP0Ay7pxIV-46" value="M&lt;sub&gt;pp&lt;/sub&gt;,&lt;br&gt;M&lt;sub&gt;ph&lt;/sub&gt;" style="edgeLabel;html=1;align=center;verticalAlign=middle;resizable=0;points=[];" vertex="1" connectable="0" parent="P7W2zEGq8QfP0Ay7pxIV-45">
          <mxGeometry x="-0.1184" relative="1" as="geometry">
            <mxPoint y="7" as="offset" />
          </mxGeometry>
        </mxCell>
      </root>
    </mxGraphModel>
  </diagram>
</mxfile>
